# xmcd
#
# Track frame offsets: 
#        150
#        18551
#        37982
#        51292
#        69300
#        89010
#        106767
#        128252
#        145041
#        168656
#        200859
#        223194
#
# Disc length: 3337 seconds
#
# Revision: 0
# Processed by: cddbd v1.5.2PL0 Copyright (c) Steve Scherf et al.
# Submitted via: ExactAudioCopyFreeDBPlugin 1.0
#
DISCID=ab0d070c
DTITLE=Charlie Daniels - Hits of the South
DYEAR=2013
DGENRE=Country
TTITLE0=Signed Sealed Delivered I'm Yours (with Bonnie Bramlett)
TTITLE1=Long Haired Country Boy (with Brooks and Dunn)
TTITLE2=Southern Boy (with Travis Tritt)
TTITLE3=The Night They Drove Old Dixie Down (with Vince Gill)
TTITLE4=Statesboro Blues
TTITLE5=The South's Gonna Do It (Again)
TTITLE6=Sharp Dressed Man
TTITLE7=The Devil Went Down To Georgia
TTITLE8=In Memory Of Elizabeth Reed
TTITLE9=Freebird
TTITLE10=Birmingham Blues
TTITLE11=Can't You See
EXTD=
EXTT0=
EXTT1=
EXTT2=
EXTT3=
EXTT4=
EXTT5=
EXTT6=
EXTT7=
EXTT8=
EXTT9=
EXTT10=
EXTT11=
PLAYORDER=
